<svg width="40" height="37" viewBox="0 0 40 37" fill="none" xmlns="http://www.w3.org/2000/svg">
<path d="M35.2383 14.4463C34.0167 12.1261 32.0483 9.36252 29.21 6.52393C24.2483 1.56014 20.08 0 17.9017 0C17.2117 0 16.7217 0.156681 16.4683 0.410037L14.2 2.67691C11.035 2.28354 8.5 2.85359 7.04333 4.31539C5.58333 5.77386 5.10333 7.91405 5.72333 10.1876C6.54333 13.1979 9.565 16.9365 15.565 19.1467C15.6283 19.6851 15.8267 20.2102 16.24 20.6219C17.22 21.602 18.7983 21.5986 19.775 20.6219C20.7517 19.6451 20.755 18.0666 19.7783 17.0899C18.7983 16.1115 17.2167 16.1098 16.24 17.0882L15.9567 17.5149C12.5717 16.2398 10.2983 14.468 8.90333 12.6812L15.3683 6.22223C16.195 10.7726 26.0883 20.6835 30.665 21.5203L18.8067 33.3664C18.4167 33.6214 14.1433 32.8397 8.54667 27.2408C2.89167 21.5853 3.255 18.455 3.50167 18.0766L6.6 14.983C5.86833 14.3846 5.05833 13.1445 4.69833 12.1678L1.14167 15.7198C0.4 16.4632 0 17.4933 0 18.7534C0 21.477 1.86833 25.279 6.18833 29.5977C10.795 34.2048 15.4883 36.67 18.575 36.67C19.655 36.67 20.5417 36.345 21.1533 35.7332L34.63 22.2687C36.1467 23.7255 33.3333 28.1659 33.3333 30.0161C33.3333 31.8562 34.8267 33.348 36.6667 33.348C38.5083 33.348 40 31.8546 40 30.0144C40 24.7072 37.625 18.6634 35.2383 14.4463ZM8.22333 5.49383C9.10167 4.61042 10.675 4.17538 12.65 4.22538L7.30167 9.5692C6.90833 7.93906 7.22 6.49392 8.22333 5.49383ZM23.71 12.2928L23.66 12.2444C21.5067 10.0909 17.3217 4.98379 18.5 3.80535C19.6917 2.61357 24.3133 6.34058 26.9367 8.96581C28.3733 10.4026 30.4167 12.7112 31.8317 14.7297C28.97 12.9395 26.0133 12.2811 23.71 12.2928Z" fill="url(#paint0_linear)"/>
<defs>
<linearGradient id="paint0_linear" x1="20" y1="0" x2="20" y2="36.67" gradientUnits="userSpaceOnUse">
<stop stop-color="#29FFD9"/>
<stop offset="1" stop-color="#30F3FF"/>
</linearGradient>
</defs>
</svg>
