<svg width="216" height="217" viewBox="0 0 216 217" fill="none" xmlns="http://www.w3.org/2000/svg">
<mask id="mask0" style="mask-type:alpha" maskUnits="userSpaceOnUse" x="0" y="0" width="216" height="217">
<rect x="1.1106" y="1.1969" width="213.889" height="213.889" rx="106.945" fill="#C4C4C4" stroke="url(#paint0_linear)" stroke-width="2"/>
</mask>
<g mask="url(#mask0)">
<path d="M38.1072 -35.6008C45.5913 -37.3279 60.5597 -35.2553 60.5597 -13.1483C60.5597 -4.23359 62.4788 1.60399 65.4393 5.46259C73.2631 15.6596 91.0565 9.32569 100.791 17.7175C104.968 21.318 108.055 27.2989 108.055 36.8981C108.055 48.2352 111.116 54.3473 115.486 57.7515C124.061 64.4318 137.571 59.7895 146.564 65.895C151.794 69.4457 155.983 75.9973 155.983 87.4162C155.983 98.4981 160.88 105.948 167.103 110.777C178.458 119.589 197.76 113.557 206.61 124.882C209.628 128.744 211.682 134.56 211.682 143.116C211.682 159.318 221.247 167.895 230.762 171.964C238.901 175.444 248.459 173.442 256.713 176.64C264.64 179.711 272.131 187.296 272.131 203.565" stroke="url(#paint1_linear)" stroke-width="2"/>
<path d="M24.29 -23.511C31.7742 -25.2381 46.7425 -23.1655 46.7425 -1.05845C46.7425 7.85622 48.6617 13.6938 51.6222 17.5524C59.4459 27.7494 77.2394 21.4155 86.9741 29.8073C91.1508 33.4078 94.2382 39.3887 94.2382 48.9879C94.2382 60.325 97.2991 66.4372 101.669 69.8413C110.244 76.5216 123.754 71.8793 132.747 77.9848C137.977 81.5355 142.166 88.0871 142.166 99.506C142.166 110.588 147.063 118.038 153.286 122.867C164.641 131.679 183.943 125.647 192.793 136.972C195.811 140.834 197.865 146.65 197.865 155.206C197.865 171.408 207.43 179.985 216.945 184.053C225.084 187.533 234.642 185.532 242.896 188.73C250.822 191.801 258.314 199.386 258.314 215.655" stroke="url(#paint2_linear)" stroke-width="2"/>
<path d="M9.60962 -12.2847C17.0938 -14.0118 32.0621 -11.9393 32.0621 10.1678C32.0621 19.0825 33.9812 24.9201 36.9418 28.7787C44.7655 38.9756 62.559 32.6417 72.2937 41.0336C76.4703 44.634 79.5578 50.615 79.5578 60.2142C79.5578 71.5512 82.6187 77.6634 86.9883 81.0675C95.5633 87.7479 109.073 83.1055 118.067 89.2111C123.297 92.7618 127.485 99.3134 127.485 110.732C127.485 121.814 132.382 129.264 138.606 134.094C149.961 142.905 169.263 136.873 178.113 148.198C181.131 152.06 183.185 157.876 183.185 166.432C183.185 182.634 192.749 191.211 202.265 195.28C210.403 198.76 219.962 196.758 228.215 199.956C236.142 203.027 243.634 210.612 243.634 226.881" stroke="url(#paint3_linear)" stroke-width="2"/>
<path d="M-11.1157 3.25934C-3.63155 1.53222 11.3368 3.60476 11.3368 25.7118C11.3368 34.6265 13.2559 40.4641 16.2164 44.3227C24.0402 54.5197 41.8336 48.1858 51.5684 56.5776C55.745 60.1781 58.8325 66.159 58.8325 75.7582C58.8325 87.0953 61.8934 93.2075 66.263 96.6116C74.8379 103.292 88.3481 98.6496 97.3414 104.755C102.571 108.306 106.76 114.857 106.76 126.276C106.76 137.358 111.657 144.808 117.881 149.638C129.235 158.449 148.537 152.417 157.387 163.742C160.405 167.604 162.459 173.421 162.459 181.976C162.459 198.178 172.024 206.755 181.54 210.824C189.678 214.304 199.236 212.302 207.49 215.5C215.417 218.571 222.908 226.156 222.908 242.425" stroke="url(#paint4_linear)" stroke-width="2"/>
<path d="M-35.2954 23.9847C-27.8112 22.2576 -12.8429 24.3301 -12.8429 46.4372C-12.8429 55.3519 -10.9238 61.1895 -7.96324 65.0481C-0.139533 75.2451 17.6539 68.9112 27.3887 77.303C31.5653 80.9035 34.6528 86.8844 34.6528 96.4836C34.6528 107.821 37.7137 113.933 42.0833 117.337C50.6582 124.017 64.1684 119.375 73.1617 125.481C78.3918 129.031 82.5802 135.583 82.5802 147.002C82.5802 158.084 87.4773 165.533 93.7009 170.363C105.056 179.174 124.358 173.143 133.208 184.467C136.226 188.329 138.28 194.146 138.28 202.701C138.28 218.904 147.844 227.48 157.36 231.549C165.498 235.029 175.057 233.028 183.31 236.226C191.237 239.297 198.729 246.882 198.729 263.15" stroke="url(#paint5_linear)" stroke-width="2"/>
<path d="M-64.6562 44.7101C-57.1721 42.983 -42.2037 45.0555 -42.2037 67.1626C-42.2037 76.0773 -40.2846 81.9149 -37.3241 85.7735C-29.5004 95.9705 -11.7069 89.6366 -1.97214 98.0284C2.20447 101.629 5.29194 107.61 5.29194 117.209C5.29194 128.546 8.35285 134.658 12.7224 138.062C21.2974 144.743 34.8076 140.1 43.8008 146.206C49.0309 149.757 53.2194 156.308 53.2194 167.727C53.2194 178.809 58.1165 186.259 64.34 191.088C75.6947 199.9 94.9969 193.868 103.847 205.193C106.865 209.055 108.919 214.871 108.919 223.427C108.919 239.629 118.483 248.206 127.999 252.275C136.138 255.755 145.696 253.753 153.949 256.951C161.876 260.022 169.368 267.607 169.368 283.876" stroke="url(#paint6_linear)" stroke-width="2"/>
<path d="M47.6062 -47.6906C55.0904 -49.4177 70.0587 -47.3452 70.0587 -25.2381C70.0587 -16.3234 71.9778 -10.4858 74.9384 -6.62721C82.7621 3.56976 100.556 -2.76412 110.29 5.62772C114.467 9.22816 117.554 15.2091 117.554 24.8083C117.554 36.1454 120.615 42.2575 124.985 45.6617C133.56 52.342 147.07 47.6997 156.063 53.8052C161.293 57.3559 165.482 63.9075 165.482 75.3264C165.482 86.4083 170.379 93.8582 176.602 98.6877C187.957 107.499 207.259 101.467 216.109 112.792C219.127 116.654 221.181 122.471 221.181 131.026C221.181 147.228 230.746 155.805 240.261 159.874C248.4 163.354 257.958 161.353 266.212 164.55C274.139 167.622 281.63 175.206 281.63 191.475" stroke="url(#paint7_linear)" stroke-width="2"/>
<path d="M58.8325 -54.599C66.3167 -56.3262 81.285 -54.2536 81.285 -32.1465C81.285 -23.2319 83.2041 -17.3943 86.1647 -13.5357C93.9884 -3.33871 111.782 -9.67259 121.517 -1.28075C125.693 2.31969 128.781 8.30065 128.781 17.8998C128.781 29.2369 131.842 35.3491 136.211 38.7532C144.786 45.4335 158.296 40.7912 167.29 46.8967C172.52 50.4475 176.708 56.9991 176.708 68.418C176.708 79.4998 181.605 86.9497 187.829 91.7792C199.183 100.591 218.486 94.559 227.336 105.884C230.354 109.746 232.408 115.562 232.408 124.117C232.408 140.32 241.972 148.897 251.488 152.965C259.626 156.445 269.185 154.444 277.438 157.642C285.365 160.713 292.857 168.298 292.857 184.566" stroke="url(#paint8_linear)" stroke-width="2"/>
<path d="M68.3315 -63.2346C75.8157 -64.9617 90.784 -62.8892 90.784 -40.7821C90.784 -31.8674 92.7032 -26.0299 95.6637 -22.1713C103.487 -11.9743 121.281 -18.3082 131.016 -9.91632C135.192 -6.31589 138.28 -0.334924 138.28 9.26425C138.28 20.6013 141.341 26.7135 145.71 30.1176C154.285 36.798 167.795 32.1556 176.789 38.2612C182.019 41.8119 186.207 48.3635 186.207 59.7824C186.207 70.8642 191.104 78.3141 197.328 83.1436C208.683 91.955 227.985 85.9234 236.835 97.2481C239.853 101.11 241.907 106.927 241.907 115.482C241.907 131.684 251.471 140.261 260.987 144.33C269.125 147.81 278.684 145.809 286.937 149.006C294.864 152.077 302.356 159.662 302.356 175.931" stroke="url(#paint9_linear)" stroke-width="2"/>
<path d="M77.8308 -71.0066C85.315 -72.7338 100.283 -70.6612 100.283 -48.5541C100.283 -39.6395 102.202 -33.8019 105.163 -29.9433C112.987 -19.7463 130.78 -26.0802 140.515 -17.6883C144.692 -14.0879 147.779 -8.10694 147.779 1.49223C147.779 12.8293 150.84 18.9415 155.21 22.3456C163.784 29.0259 177.295 24.3836 186.288 30.4891C191.518 34.0399 195.706 40.5915 195.706 52.0104C195.706 63.0922 200.604 70.5421 206.827 75.3716C218.182 84.183 237.484 78.1514 246.334 89.4761C249.352 93.338 251.406 99.1545 251.406 107.71C251.406 123.912 260.971 132.489 270.486 136.558C278.625 140.038 288.183 138.037 296.436 141.234C304.363 144.305 311.855 151.89 311.855 168.159" stroke="url(#paint10_linear)" stroke-width="2"/>
<path d="M85.6028 -75.3244C93.087 -77.0516 108.055 -74.979 108.055 -52.8719C108.055 -43.9573 109.974 -38.1197 112.935 -34.2611C120.759 -24.0641 138.552 -30.398 148.287 -22.0061C152.463 -18.4057 155.551 -12.4247 155.551 -2.82557C155.551 8.51151 158.612 14.6237 162.981 18.0278C171.556 24.7081 185.067 20.0658 194.06 26.1714C199.29 29.7221 203.478 36.2737 203.478 47.6926C203.478 58.7744 208.376 66.2243 214.599 71.0538C225.954 79.8652 245.256 73.8336 254.106 85.1583C257.124 89.0202 259.178 94.8368 259.178 103.392C259.178 119.595 268.743 128.171 278.258 132.24C286.397 135.72 295.955 133.719 304.208 136.916C312.135 139.988 319.627 147.573 319.627 163.841" stroke="url(#paint11_linear)" stroke-width="2"/>
<path d="M91.6477 -80.5058C99.1319 -82.2329 114.1 -80.1604 114.1 -58.0533C114.1 -49.1386 116.019 -43.301 118.98 -39.4424C126.804 -29.2454 144.597 -35.5793 154.332 -27.1875C158.508 -23.587 161.596 -17.6061 161.596 -8.00691C161.596 3.33017 164.657 9.44234 169.026 12.8465C177.601 19.5268 191.112 14.8845 200.105 20.99C205.335 24.5407 209.523 31.0923 209.523 42.5112C209.523 53.5931 214.42 61.043 220.644 65.8725C231.999 74.6839 251.301 68.6523 260.151 79.977C263.169 83.8389 265.223 89.6554 265.223 98.2107C265.223 114.413 274.787 122.99 284.303 127.059C292.441 130.539 302 128.537 310.253 131.735C318.18 134.806 325.672 142.391 325.672 158.66" stroke="url(#paint12_linear)" stroke-width="2"/>
<path d="M95.9653 -83.96C103.45 -85.6871 118.418 -83.6146 118.418 -61.5075C118.418 -52.5928 120.337 -46.7552 123.298 -42.8966C131.121 -32.6997 148.915 -39.0336 158.649 -30.6417C162.826 -27.0413 165.914 -21.0603 165.914 -11.4611C165.914 -0.124066 168.974 5.98811 173.344 9.39224C181.919 16.0726 195.429 11.4302 204.422 17.5358C209.653 21.0865 213.841 27.6381 213.841 39.057C213.841 50.1389 218.738 57.5887 224.962 62.4183C236.316 71.2296 255.618 65.1981 264.468 76.5227C267.486 80.3846 269.54 86.2012 269.54 94.7565C269.54 110.959 279.105 119.536 288.621 123.604C296.759 127.084 306.317 125.083 314.571 128.281C322.498 131.352 329.99 138.937 329.99 155.206" stroke="url(#paint13_linear)" stroke-width="2"/>
<path d="M99.4197 -87.4142C106.904 -89.1414 121.872 -87.0688 121.872 -64.9617C121.872 -56.0471 123.791 -50.2095 126.752 -46.3509C134.576 -36.1539 152.369 -42.4878 162.104 -34.0959C166.28 -30.4955 169.368 -24.5145 169.368 -14.9154C169.368 -3.5783 172.429 2.53388 176.798 5.93801C185.373 12.6183 198.883 7.97601 207.877 14.0815C213.107 17.6323 217.295 24.1839 217.295 35.6028C217.295 46.6846 222.192 54.1345 228.416 58.964C239.771 67.7754 259.073 61.7438 267.923 73.0685C270.941 76.9304 272.995 82.7469 272.995 91.3022C272.995 107.505 282.559 116.081 292.075 120.15C300.213 123.63 309.772 121.629 318.025 124.827C325.952 127.898 333.444 135.483 333.444 151.751" stroke="url(#paint14_linear)" stroke-width="2"/>
<path d="M102.874 -92.5956C110.358 -94.3227 125.327 -92.2502 125.327 -70.1431C125.327 -61.2284 127.246 -55.3908 130.206 -51.5322C138.03 -41.3352 155.823 -47.6691 165.558 -39.2773C169.735 -35.6768 172.822 -29.6959 172.822 -20.0967C172.822 -8.75964 175.883 -2.64746 180.253 0.756668C188.828 7.43699 202.338 2.79467 211.331 8.9002C216.561 12.4509 220.75 19.0025 220.75 30.4214C220.75 41.5033 225.647 48.9532 231.87 53.7827C243.225 62.5941 262.527 56.5625 271.377 67.8872C274.395 71.7491 276.449 77.5656 276.449 86.1209C276.449 102.323 286.014 110.9 295.529 114.969C303.668 118.449 313.226 116.448 321.48 119.645C329.406 122.717 336.898 130.301 336.898 146.57" stroke="url(#paint15_linear)" stroke-width="2"/>
<path d="M106.328 -96.0498C113.812 -97.7769 128.781 -95.7044 128.781 -73.5973C128.781 -64.6826 130.7 -58.8451 133.66 -54.9865C141.484 -44.7895 159.277 -51.1234 169.012 -42.7315C173.189 -39.1311 176.276 -33.1501 176.276 -23.551C176.276 -12.2139 179.337 -6.1017 183.707 -2.69757C192.282 3.98275 205.792 -0.659569 214.785 5.44596C220.015 8.99668 224.204 15.5483 224.204 26.9672C224.204 38.049 229.101 45.4989 235.324 50.3284C246.679 59.1398 265.981 53.1082 274.831 64.4329C277.849 68.2948 279.903 74.1114 279.903 82.6667C279.903 98.8692 289.468 107.446 298.983 111.515C307.122 114.995 316.68 112.993 324.934 116.191C332.86 119.262 340.352 126.847 340.352 143.116" stroke="url(#paint16_linear)" stroke-width="2"/>
<path d="M106.328 -100.368C113.812 -102.095 128.781 -100.022 128.781 -77.9151C128.781 -69.0004 130.7 -63.1628 133.66 -59.3042C141.484 -49.1073 159.277 -55.4411 169.012 -47.0493C173.189 -43.4489 176.276 -37.4679 176.276 -27.8687C176.276 -16.5317 179.337 -10.4195 183.707 -7.01535C192.282 -0.335026 205.792 -4.97735 214.785 1.12818C220.015 4.6789 224.204 11.2305 224.204 22.6494C224.204 33.7313 229.101 41.1811 235.324 46.0107C246.679 54.822 265.981 48.7905 274.831 60.1151C277.849 63.9771 279.903 69.7936 279.903 78.3489C279.903 94.5514 289.468 103.128 298.983 107.197C307.122 110.677 316.68 108.676 324.934 111.873C332.86 114.944 340.352 122.529 340.352 138.798" stroke="url(#paint17_linear)" stroke-width="2"/>
<path d="M106.328 -103.822C113.812 -105.549 128.781 -103.476 128.781 -81.3693C128.781 -72.4547 130.7 -66.6171 133.66 -62.7585C141.484 -52.5615 159.277 -58.8954 169.012 -50.5035C173.189 -46.9031 176.276 -40.9221 176.276 -31.323C176.276 -19.9859 179.337 -13.8737 183.707 -10.4696C192.282 -3.78927 205.792 -8.43159 214.785 -2.32606C220.015 1.22466 224.204 7.77626 224.204 19.1952C224.204 30.277 229.101 37.7269 235.324 42.5564C246.679 51.3678 265.981 45.3362 274.831 56.6609C277.849 60.5228 279.903 66.3393 279.903 74.8946C279.903 91.0971 289.468 99.6738 298.983 103.743C307.122 107.223 316.68 105.221 324.934 108.419C332.86 111.49 340.352 119.075 340.352 135.344" stroke="url(#paint18_linear)" stroke-width="2"/>
</g>
<defs>
<linearGradient id="paint0_linear" x1="108.055" y1="0.196899" x2="108.055" y2="216.086" gradientUnits="userSpaceOnUse">
<stop stop-color="#29FFD9"/>
<stop offset="1" stop-color="#30F3FF"/>
</linearGradient>
<linearGradient id="paint1_linear" x1="155.119" y1="-36.0725" x2="155.119" y2="203.565" gradientUnits="userSpaceOnUse">
<stop stop-color="#29FFD9"/>
<stop offset="1" stop-color="#30F3FF"/>
</linearGradient>
<linearGradient id="paint2_linear" x1="141.302" y1="-23.9827" x2="141.302" y2="215.655" gradientUnits="userSpaceOnUse">
<stop stop-color="#29FFD9"/>
<stop offset="1" stop-color="#30F3FF"/>
</linearGradient>
<linearGradient id="paint3_linear" x1="126.622" y1="-12.7565" x2="126.622" y2="226.881" gradientUnits="userSpaceOnUse">
<stop stop-color="#29FFD9"/>
<stop offset="1" stop-color="#30F3FF"/>
</linearGradient>
<linearGradient id="paint4_linear" x1="105.896" y1="2.78757" x2="105.896" y2="242.425" gradientUnits="userSpaceOnUse">
<stop stop-color="#29FFD9"/>
<stop offset="1" stop-color="#30F3FF"/>
</linearGradient>
<linearGradient id="paint5_linear" x1="81.7167" y1="23.513" x2="81.7167" y2="263.15" gradientUnits="userSpaceOnUse">
<stop stop-color="#29FFD9"/>
<stop offset="1" stop-color="#30F3FF"/>
</linearGradient>
<linearGradient id="paint6_linear" x1="52.3558" y1="44.2383" x2="52.3558" y2="283.876" gradientUnits="userSpaceOnUse">
<stop stop-color="#29FFD9"/>
<stop offset="1" stop-color="#30F3FF"/>
</linearGradient>
<linearGradient id="paint7_linear" x1="164.618" y1="-48.1623" x2="164.618" y2="191.475" gradientUnits="userSpaceOnUse">
<stop stop-color="#29FFD9"/>
<stop offset="1" stop-color="#30F3FF"/>
</linearGradient>
<linearGradient id="paint8_linear" x1="175.845" y1="-55.0708" x2="175.845" y2="184.566" gradientUnits="userSpaceOnUse">
<stop stop-color="#29FFD9"/>
<stop offset="1" stop-color="#30F3FF"/>
</linearGradient>
<linearGradient id="paint9_linear" x1="185.344" y1="-63.7064" x2="185.344" y2="175.931" gradientUnits="userSpaceOnUse">
<stop stop-color="#29FFD9"/>
<stop offset="1" stop-color="#30F3FF"/>
</linearGradient>
<linearGradient id="paint10_linear" x1="194.843" y1="-71.4784" x2="194.843" y2="168.159" gradientUnits="userSpaceOnUse">
<stop stop-color="#29FFD9"/>
<stop offset="1" stop-color="#30F3FF"/>
</linearGradient>
<linearGradient id="paint11_linear" x1="202.615" y1="-75.7962" x2="202.615" y2="163.841" gradientUnits="userSpaceOnUse">
<stop stop-color="#29FFD9"/>
<stop offset="1" stop-color="#30F3FF"/>
</linearGradient>
<linearGradient id="paint12_linear" x1="208.66" y1="-80.9775" x2="208.66" y2="158.66" gradientUnits="userSpaceOnUse">
<stop stop-color="#29FFD9"/>
<stop offset="1" stop-color="#30F3FF"/>
</linearGradient>
<linearGradient id="paint13_linear" x1="212.977" y1="-84.4318" x2="212.977" y2="155.206" gradientUnits="userSpaceOnUse">
<stop stop-color="#29FFD9"/>
<stop offset="1" stop-color="#30F3FF"/>
</linearGradient>
<linearGradient id="paint14_linear" x1="216.432" y1="-87.886" x2="216.432" y2="151.751" gradientUnits="userSpaceOnUse">
<stop stop-color="#29FFD9"/>
<stop offset="1" stop-color="#30F3FF"/>
</linearGradient>
<linearGradient id="paint15_linear" x1="219.886" y1="-93.0674" x2="219.886" y2="146.57" gradientUnits="userSpaceOnUse">
<stop stop-color="#29FFD9"/>
<stop offset="1" stop-color="#30F3FF"/>
</linearGradient>
<linearGradient id="paint16_linear" x1="223.34" y1="-96.5216" x2="223.34" y2="143.116" gradientUnits="userSpaceOnUse">
<stop stop-color="#29FFD9"/>
<stop offset="1" stop-color="#30F3FF"/>
</linearGradient>
<linearGradient id="paint17_linear" x1="223.34" y1="-100.839" x2="223.34" y2="138.798" gradientUnits="userSpaceOnUse">
<stop stop-color="#29FFD9"/>
<stop offset="1" stop-color="#30F3FF"/>
</linearGradient>
<linearGradient id="paint18_linear" x1="223.34" y1="-104.294" x2="223.34" y2="135.344" gradientUnits="userSpaceOnUse">
<stop stop-color="#29FFD9"/>
<stop offset="1" stop-color="#30F3FF"/>
</linearGradient>
</defs>
</svg>
