<svg width="40" height="38" viewBox="0 0 40 38" fill="none" xmlns="http://www.w3.org/2000/svg">
<path fill-rule="evenodd" clip-rule="evenodd" d="M40 17.9567C40 25.54 33.695 29.5567 28.09 29.2834C27.8383 31.6967 28.1917 33.6867 28.73 35.3517L22.53 37.3334C21.9667 35.4517 20.875 30.9634 17.9433 28.535C13.3967 29.8717 9.66167 27.4584 8.30333 24.1567C3.58167 24.2334 0 21.0967 0 16.5684C0 9.57002 7.67333 0.666687 19.9833 0.666687C32.5367 0.666687 40 9.62835 40 17.9567ZM3.34667 16.175C3.105 20.095 6.97833 21.2917 10.7467 20.885C11.3067 24.9334 15.4233 26.35 18.5 24.8784C21.085 26.1117 23.0783 28.8284 24.715 33.1567L24.7183 33.1667L24.9033 33.1067C24.5383 30.475 24.7533 27.5667 25.5033 25.56C32.015 26.7034 36.9183 23.6384 36.6533 17.5134C36.3767 11.1317 30.5583 4.16169 20.2483 3.99835C9.745 3.93002 3.65333 11.09 3.34667 16.175V16.175ZM16.955 12.035C15.8017 11.5117 15 10.3484 15 9.00002C15 7.16002 16.4933 5.66669 18.3333 5.66669C20.1733 5.66669 21.6667 7.16002 21.6667 9.00002C21.6667 9.43335 21.5833 9.84835 21.4317 10.23C23.4567 11.7484 25.44 13.3217 27.4317 14.8867C28.1383 14.3317 29.0317 14 30 14C32.3 14 34.1667 15.8667 34.1667 18.1667C34.1667 20.4667 32.3 22.3334 30 22.3334C28.0483 22.3334 26.4083 20.9884 25.9567 19.175C23.955 19.3384 21.95 19.4634 19.9467 19.5984C19.6633 21.1534 18.3017 22.3334 16.6667 22.3334C14.8267 22.3334 13.3333 20.84 13.3333 19C13.3333 17.2784 14.64 15.86 16.3167 15.685C16.5167 14.4667 16.7367 13.2517 16.955 12.035ZM20.3867 11.625C19.8933 12.0117 19.2867 12.2634 18.625 12.32L18.02 15.9534C18.86 16.3267 19.5167 17.0384 19.8183 17.915L25.8983 17.4334C25.9767 16.9884 26.1267 16.5684 26.335 16.185L20.3867 11.625V11.625Z" fill="url(#paint0_linear)"/>
<defs>
<linearGradient id="paint0_linear" x1="20" y1="0.666687" x2="20" y2="37.3334" gradientUnits="userSpaceOnUse">
<stop stop-color="#29FFD9"/>
<stop offset="1" stop-color="#30F3FF"/>
</linearGradient>
</defs>
</svg>
